# xmcd CD database file
#
# Track frame offsets:
#	182
#	5397
#	29355
#	50692
#	83727
#	110500
#	130135
#	170995
#	204965
#	224177
#	242400
#	269327
#
# Disc length: 3792 seconds
#
# Revision: 0
# Processed by: cddbd v1.5.2PL0 Copyright (c) Steve Scherf et al.
# Submitted via: CDex 1.70beta2
#
DISCID=ab0ece0c
DTITLE=Pirly Zustrassen - "H" Septet - Horizons Azur
DYEAR=1995
DGENRE=Jazz
TTITLE0=Prologue
TTITLE1=Heptacode
TTITLE2="H" Dance
TTITLE3=Anatheme
TTITLE4=Humeurs
TTITLE5=Variations
TTITLE6=Suites - a)Canari, b)Avenue Du Ciel, c)Tango
TTITLE7=Hurluberlu
TTITLE8=Mages
TTITLE9=Bougies
TTITLE10=Codes Croises
TTITLE11=Epilogue
EXTD=YEAR: 1995
EXTT0=
EXTT1=
EXTT2=
EXTT3=
EXTT4=
EXTT5=
EXTT6=
EXTT7=
EXTT8=
EXTT9=
EXTT10=
EXTT11=
PLAYORDER=
